<svg xmlns="http://www.w3.org/2000/svg" xmlns:xlink="http://www.w3.org/1999/xlink" version="1.1" x="0px" y="0px" viewBox="0 0 512 640" style="enable-background:new 0 0 512 512;" xml:space="preserve"><title>Idea</title><g><path d="M260.7,62.8c3.3,0,6-2.7,6-6V16.9c0-3.3-2.7-6-6-6s-6,2.7-6,6v39.9C254.7,60.1,257.4,62.8,260.7,62.8z"/><path d="M446,200.9h-39.9c-3.3,0-6,2.7-6,6c0,3.3,2.7,6,6,6H446c3.3,0,6-2.7,6-6C452,203.6,449.3,200.9,446,200.9z"/><path d="M105.9,200.9H66c-3.3,0-6,2.7-6,6c0,3.3,2.7,6,6,6h39.9c3.3,0,6-2.7,6-6C111.9,203.6,109.2,200.9,105.9,200.9z"/><path d="M369.3,102.1L400.4,71c2.3-2.3,2.3-6.1,0-8.5c0,0,0,0,0,0c-2.3-2.3-6.1-2.3-8.5,0l-31.1,31.1c-2.3,2.3-2.3,6.1,0,8.5   C363.2,104.4,367,104.4,369.3,102.1z"/><path d="M142.7,102.1c1.1,1.1,2.7,1.8,4.2,1.8c3.3,0,6-2.7,6-6c0-1.6-0.6-3.1-1.8-4.2l-31.1-31.1c-2.3-2.3-6.1-2.3-8.5,0   s-2.3,6.1,0,8.5L142.7,102.1z"/><path d="M163.6,122.5c-54.8,51-57.8,136.8-6.8,191.6c2.4,2.6,4.9,5.1,7.5,7.5c17.5,16.3,27.4,39.1,27.4,63v64.7   c0,14.3,11.6,25.9,25.9,25.9H250v19.9c0,3.3,2.7,6,6,6s6-2.7,6-6v-19.9h32.4c14.3,0,25.9-11.6,25.9-25.9v-64.8   c0.2-24.2,10.3-47.2,28.1-63.6c54.8-51,57.8-136.8,6.8-191.6C304.2,74.5,218.4,71.5,163.6,122.5z M308.3,406.2h-67.1   c-3.3,0-6,2.7-6,6s2.7,6,6,6h67.1v16.5h-15.2c-3.3,0-6,2.7-6,6s2.7,6,6,6h15.2v2.6c0,7.7-6.2,13.9-13.9,13.9h-76.8   c-7.7,0-13.9-6.2-13.9-13.9v-2.6h68.8c3.3,0,6-2.7,6-6s-2.7-6-6-6h-68.8v-16.5h16.9c3.3,0,6-2.7,6-6s-2.7-6-6-6h-16.9v-15.6h104.6   V406.2z M340.2,312.1c-18.7,17.3-30,41.1-31.7,66.4h-21.7v-63.1c0-7.3,6-13.3,13.3-13.3c14,0,25.3-11.3,25.3-25.3v-3.7   c13.4-3.3,21.5-16.8,18.2-30.2c-3.3-13.4-16.8-21.5-30.2-18.2c-13.4,3.3-21.5,16.8-18.2,30.2c2.2,9,9.2,16,18.2,18.2v3.7   c0,7.3-6,13.3-13.3,13.3c-14,0-25.3,11.3-25.3,25.3v63.1h-12.3V212.7c13.4-3.3,21.5-16.9,18.2-30.2s-16.9-21.5-30.2-18.2   c-13.4,3.3-21.5,16.9-18.2,30.2c2.2,9,9.2,16,18.2,18.2v165.9h-12.3v-63.1c0-14-11.3-25.3-25.3-25.3c-7.3,0-13.3-6-13.3-13.3v-3.7   c4.4-1.1,8.4-3.4,11.6-6.6c9.8-9.7,9.8-25.5,0-35.3c-9.7-9.8-25.5-9.8-35.3,0c-9.8,9.7-9.8,25.5,0,35.3c3.2,3.2,7.2,5.5,11.7,6.6   v3.7c0,14,11.3,25.3,25.3,25.3c7.3,0,13.3,6,13.3,13.3v63.1h-22.6c-1.5-25.1-12.6-48.7-31.1-65.8c-50.3-46.2-53.6-124.3-7.5-174.6   c23.4-25.5,56.4-40,91-40c0.4,0,0.8,0,1.2,0c68.3,0.6,123.1,56.5,122.4,124.7C379.3,256.7,365,289,340.2,312.1z M310.3,258.3   c0,0-0.1-0.1-0.1-0.1c-5.1-5.1-5.1-13.3,0-18.3c5.1-5.1,13.3-5.1,18.3,0c5.1,5.1,5.1,13.3,0,18.3   C323.5,263.2,315.4,263.3,310.3,258.3z M247.4,197.7c0,0-0.1-0.1-0.1-0.1c-5.1-5.1-5.1-13.3,0-18.3c5.1-5.1,13.3-5.1,18.3,0   s5.1,13.3,0,18.3c0,0,0,0,0,0C260.6,202.7,252.5,202.7,247.4,197.7z M184.4,239.9c5.1-5.1,13.3-5.1,18.3,0c5.1,5.1,5.1,13.3,0,18.3   c-5.1,5-13.2,5-18.3,0v0C179.3,253.1,179.3,244.9,184.4,239.9z"/></g></svg>